<mxfile host="app.diagrams.net" modified="2023-10-06T10:13:31.819Z" agent="Mozilla/5.0 (Macintosh; Intel Mac OS X 10_15_7) AppleWebKit/537.36 (KHTML, like Gecko) Chrome/117.0.0.0 Safari/537.36" etag="twRVP3YMtcS1RNG0eqxo" version="21.2.3" type="device">
  <diagram name="Cas_utilisation" id="kNXNh90JF8TMtOynWtVJ">
    <mxGraphModel dx="2868" dy="1594" grid="1" gridSize="10" guides="1" tooltips="1" connect="1" arrows="1" fold="1" page="1" pageScale="1" pageWidth="2339" pageHeight="3300" math="0" shadow="0">
      <root>
        <mxCell id="0" />
        <mxCell id="1" parent="0" />
        <mxCell id="eWDNvbtuMHSI0OsPkBJy-3" value="" style="rounded=0;whiteSpace=wrap;html=1;" parent="1" vertex="1">
          <mxGeometry x="600" y="110" width="1290" height="680" as="geometry" />
        </mxCell>
        <mxCell id="eWDNvbtuMHSI0OsPkBJy-5" value="Utilisateur&lt;br&gt;" style="shape=umlActor;verticalLabelPosition=bottom;verticalAlign=top;html=1;outlineConnect=0;" parent="1" vertex="1">
          <mxGeometry x="630" y="400" width="50" height="100" as="geometry" />
        </mxCell>
        <mxCell id="eWDNvbtuMHSI0OsPkBJy-8" value="System" style="text;html=1;strokeColor=none;fillColor=none;align=center;verticalAlign=middle;whiteSpace=wrap;rounded=0;" parent="1" vertex="1">
          <mxGeometry x="1820" y="120" width="60" height="30" as="geometry" />
        </mxCell>
        <mxCell id="eWDNvbtuMHSI0OsPkBJy-23" value="Lister les figures publiés" style="ellipse;whiteSpace=wrap;html=1;" parent="1" vertex="1">
          <mxGeometry x="1060" y="650" width="170" height="80" as="geometry" />
        </mxCell>
        <mxCell id="eWDNvbtuMHSI0OsPkBJy-24" value="" style="endArrow=none;html=1;rounded=0;entryX=1;entryY=0.5;entryDx=0;entryDy=0;exitX=0;exitY=0.5;exitDx=0;exitDy=0;" parent="1" source="eWDNvbtuMHSI0OsPkBJy-25" target="eWDNvbtuMHSI0OsPkBJy-23" edge="1">
          <mxGeometry width="50" height="50" relative="1" as="geometry">
            <mxPoint x="1030" y="1181" as="sourcePoint" />
            <mxPoint x="1080" y="1131" as="targetPoint" />
          </mxGeometry>
        </mxCell>
        <mxCell id="eWDNvbtuMHSI0OsPkBJy-25" value="Consulter uns figure en détail" style="ellipse;whiteSpace=wrap;html=1;" parent="1" vertex="1">
          <mxGeometry x="1580" y="650" width="170" height="80" as="geometry" />
        </mxCell>
        <mxCell id="eWDNvbtuMHSI0OsPkBJy-27" value="" style="endArrow=none;html=1;rounded=0;exitX=0.5;exitY=0.5;exitDx=0;exitDy=0;exitPerimeter=0;entryX=0;entryY=0.5;entryDx=0;entryDy=0;" parent="1" source="eWDNvbtuMHSI0OsPkBJy-5" target="eWDNvbtuMHSI0OsPkBJy-23" edge="1">
          <mxGeometry width="50" height="50" relative="1" as="geometry">
            <mxPoint x="1360" y="700" as="sourcePoint" />
            <mxPoint x="1410" y="650" as="targetPoint" />
          </mxGeometry>
        </mxCell>
        <mxCell id="eWDNvbtuMHSI0OsPkBJy-29" value="Poster une figure" style="ellipse;whiteSpace=wrap;html=1;" parent="1" vertex="1">
          <mxGeometry x="1538" y="320" width="170" height="80" as="geometry" />
        </mxCell>
        <mxCell id="eWDNvbtuMHSI0OsPkBJy-31" value="Modifier une figure" style="ellipse;whiteSpace=wrap;html=1;" parent="1" vertex="1">
          <mxGeometry x="1230" y="470" width="170" height="80" as="geometry" />
        </mxCell>
        <mxCell id="eWDNvbtuMHSI0OsPkBJy-36" value="" style="endArrow=classic;html=1;rounded=0;exitX=0.5;exitY=1;exitDx=0;exitDy=0;" parent="1" source="oth5q_XE_7d4GhYEvjcu-1" target="eWDNvbtuMHSI0OsPkBJy-31" edge="1">
          <mxGeometry width="50" height="50" relative="1" as="geometry">
            <mxPoint x="1088" y="380" as="sourcePoint" />
            <mxPoint x="1293" y="440" as="targetPoint" />
          </mxGeometry>
        </mxCell>
        <mxCell id="eWDNvbtuMHSI0OsPkBJy-37" value="Supprimer une figure" style="ellipse;whiteSpace=wrap;html=1;" parent="1" vertex="1">
          <mxGeometry x="1418" y="420" width="170" height="80" as="geometry" />
        </mxCell>
        <mxCell id="eWDNvbtuMHSI0OsPkBJy-38" value="" style="endArrow=classic;html=1;rounded=0;exitX=0.5;exitY=1;exitDx=0;exitDy=0;" parent="1" source="oth5q_XE_7d4GhYEvjcu-1" target="eWDNvbtuMHSI0OsPkBJy-37" edge="1">
          <mxGeometry width="50" height="50" relative="1" as="geometry">
            <mxPoint x="1198" y="500" as="sourcePoint" />
            <mxPoint x="1248" y="450" as="targetPoint" />
          </mxGeometry>
        </mxCell>
        <mxCell id="oth5q_XE_7d4GhYEvjcu-1" value="S&#39;authentifier" style="ellipse;whiteSpace=wrap;html=1;" parent="1" vertex="1">
          <mxGeometry x="1028" y="140" width="170" height="80" as="geometry" />
        </mxCell>
        <mxCell id="oth5q_XE_7d4GhYEvjcu-2" value="" style="endArrow=none;html=1;rounded=0;exitX=0.5;exitY=0.5;exitDx=0;exitDy=0;exitPerimeter=0;entryX=0;entryY=0.5;entryDx=0;entryDy=0;" parent="1" source="eWDNvbtuMHSI0OsPkBJy-5" target="oth5q_XE_7d4GhYEvjcu-1" edge="1">
          <mxGeometry width="50" height="50" relative="1" as="geometry">
            <mxPoint x="906" y="391" as="sourcePoint" />
            <mxPoint x="1171" y="552" as="targetPoint" />
          </mxGeometry>
        </mxCell>
        <mxCell id="oth5q_XE_7d4GhYEvjcu-3" value="" style="endArrow=none;html=1;rounded=0;exitX=1;exitY=0.5;exitDx=0;exitDy=0;entryX=0;entryY=0.5;entryDx=0;entryDy=0;" parent="1" source="oth5q_XE_7d4GhYEvjcu-1" target="oth5q_XE_7d4GhYEvjcu-5" edge="1">
          <mxGeometry width="50" height="50" relative="1" as="geometry">
            <mxPoint x="1348" y="420" as="sourcePoint" />
            <mxPoint x="1518" y="250" as="targetPoint" />
          </mxGeometry>
        </mxCell>
        <mxCell id="oth5q_XE_7d4GhYEvjcu-4" value="&amp;lt;&amp;lt; extend &amp;gt;&amp;gt;" style="edgeLabel;html=1;align=center;verticalAlign=middle;resizable=0;points=[];" parent="oth5q_XE_7d4GhYEvjcu-3" vertex="1" connectable="0">
          <mxGeometry x="0.0087" y="-3" relative="1" as="geometry">
            <mxPoint x="-2" y="-17" as="offset" />
          </mxGeometry>
        </mxCell>
        <mxCell id="oth5q_XE_7d4GhYEvjcu-5" value="S&#39;inscrire" style="ellipse;whiteSpace=wrap;html=1;" parent="1" vertex="1">
          <mxGeometry x="1538" y="140" width="170" height="80" as="geometry" />
        </mxCell>
        <mxCell id="oth5q_XE_7d4GhYEvjcu-9" value="&amp;lt;&amp;lt; include &amp;gt;&amp;gt;" style="text;html=1;strokeColor=none;fillColor=none;align=center;verticalAlign=middle;whiteSpace=wrap;rounded=0;" parent="1" vertex="1">
          <mxGeometry x="1390" y="650" width="90" height="30" as="geometry" />
        </mxCell>
        <mxCell id="oth5q_XE_7d4GhYEvjcu-10" value="Commenter une figure" style="ellipse;whiteSpace=wrap;html=1;" parent="1" vertex="1">
          <mxGeometry x="1660" y="450" width="170" height="80" as="geometry" />
        </mxCell>
        <mxCell id="_E8FRcx73ldGHqG7wUPm-1" value="" style="endArrow=classic;html=1;rounded=0;entryX=0;entryY=0;entryDx=0;entryDy=0;exitX=0.5;exitY=1;exitDx=0;exitDy=0;" edge="1" parent="1" source="oth5q_XE_7d4GhYEvjcu-1" target="eWDNvbtuMHSI0OsPkBJy-29">
          <mxGeometry width="50" height="50" relative="1" as="geometry">
            <mxPoint x="1280" y="240" as="sourcePoint" />
            <mxPoint x="1534" y="389" as="targetPoint" />
          </mxGeometry>
        </mxCell>
        <mxCell id="_E8FRcx73ldGHqG7wUPm-6" value="" style="endArrow=classic;html=1;rounded=0;exitX=0.5;exitY=1;exitDx=0;exitDy=0;entryX=0.5;entryY=0;entryDx=0;entryDy=0;" edge="1" parent="1" source="oth5q_XE_7d4GhYEvjcu-1" target="eWDNvbtuMHSI0OsPkBJy-23">
          <mxGeometry width="50" height="50" relative="1" as="geometry">
            <mxPoint x="1080" y="220" as="sourcePoint" />
            <mxPoint x="1355" y="302" as="targetPoint" />
          </mxGeometry>
        </mxCell>
        <mxCell id="_E8FRcx73ldGHqG7wUPm-7" value="" style="endArrow=classic;html=1;rounded=0;entryX=0;entryY=0;entryDx=0;entryDy=0;" edge="1" parent="1" target="oth5q_XE_7d4GhYEvjcu-10">
          <mxGeometry width="50" height="50" relative="1" as="geometry">
            <mxPoint x="1120" y="220" as="sourcePoint" />
            <mxPoint x="1510" y="361" as="targetPoint" />
          </mxGeometry>
        </mxCell>
      </root>
    </mxGraphModel>
  </diagram>
</mxfile>
